<svg xmlns="http://www.w3.org/2000/svg" width="228.417" height="147.115" viewBox="0 0 228.417 147.115">
  <g id="Gruppe_210" data-name="Gruppe 210" transform="translate(-140 -26.543)">
    <g id="Logo" transform="translate(140 26.543)">
      <g id="Gruppe_209" data-name="Gruppe 209">
        <g id="Gruppe_208" data-name="Gruppe 208" transform="translate(0 108.397)">
          <g id="Gruppe_196" data-name="Gruppe 196" transform="translate(198.661)">
            <path id="Pfad_125" data-name="Pfad 125" d="M331.939,346.512a1.805,1.805,0,1,0,1.805,1.805A1.787,1.787,0,0,0,331.939,346.512Z" transform="translate(-330.134 -346.512)" fill="#484848"/>
          </g>
          <g id="Gruppe_207" data-name="Gruppe 207" transform="translate(0 1.97)">
            <g id="Gruppe_197" data-name="Gruppe 197" transform="translate(0 6.672)">
              <path id="Pfad_126" data-name="Pfad 126" d="M260.541,349.806a5.812,5.812,0,0,0-6.124,5.961v18.156a6.127,6.127,0,0,0,12.25,0v-3.009h-2.734v3.009a3.392,3.392,0,1,1-6.782,0V355.767a3.392,3.392,0,1,1,6.782,0v2.624h2.734v-2.624A5.783,5.783,0,0,0,260.541,349.806Z" transform="translate(-254.417 -349.806)" fill="#484848"/>
            </g>
            <g id="Gruppe_198" data-name="Gruppe 198" transform="translate(25.051 6.672)">
              <path id="Pfad_127" data-name="Pfad 127" d="M270.089,349.806a5.782,5.782,0,0,0-6.124,5.961v18.156a6.127,6.127,0,0,0,12.25,0V355.767A5.783,5.783,0,0,0,270.089,349.806Zm3.392,24.117a3.392,3.392,0,1,1-6.782,0V355.767a3.392,3.392,0,1,1,6.782,0Z" transform="translate(-263.965 -349.806)" fill="#484848"/>
            </g>
            <g id="Gruppe_199" data-name="Gruppe 199" transform="translate(51.197 6.672)">
              <path id="Pfad_128" data-name="Pfad 128" d="M280.054,349.806a5.782,5.782,0,0,0-6.124,5.961v23.569h2.734V355.767a3.392,3.392,0,1,1,6.782,0v23.569h2.734V355.767A5.783,5.783,0,0,0,280.054,349.806Z" transform="translate(-273.93 -349.806)" fill="#484848"/>
            </g>
            <g id="Gruppe_200" data-name="Gruppe 200" transform="translate(77.342 6.672)">
              <path id="Pfad_129" data-name="Pfad 129" d="M290.019,349.806a5.81,5.81,0,0,0-6.124,5.961v18.156a6.127,6.127,0,0,0,12.25,0v-3.009h-2.734v3.009a3.392,3.392,0,1,1-6.782,0V355.767a3.392,3.392,0,1,1,6.782,0v2.624h2.734v-2.624A5.783,5.783,0,0,0,290.019,349.806Z" transform="translate(-283.895 -349.806)" fill="#484848"/>
            </g>
            <g id="Gruppe_201" data-name="Gruppe 201" transform="translate(102.396 6.672)">
              <path id="Pfad_130" data-name="Pfad 130" d="M299.568,349.806a5.782,5.782,0,0,0-6.124,5.961v18.156a6.127,6.127,0,0,0,12.25,0v-3.009H302.96v3.009a3.392,3.392,0,1,1-6.782,0v-6.234l7.053-3.555a3.64,3.64,0,0,0,2.464-3.665v-4.7A5.783,5.783,0,0,0,299.568,349.806Zm3.392,10.663a1.371,1.371,0,0,1-.766,1.259l-6.016,2.952v-8.913a3.392,3.392,0,1,1,6.782,0Z" transform="translate(-293.444 -349.806)" fill="#484848"/>
            </g>
            <g id="Gruppe_202" data-name="Gruppe 202" transform="translate(128.214 6.672)">
              <path id="Pfad_131" data-name="Pfad 131" d="M309.408,349.806a5.782,5.782,0,0,0-6.124,5.961v23.569h2.734V355.767a3.392,3.392,0,1,1,6.782,0v23.569h2.734V355.767A5.783,5.783,0,0,0,309.408,349.806Z" transform="translate(-303.284 -349.806)" fill="#484848"/>
            </g>
            <g id="Gruppe_203" data-name="Gruppe 203" transform="translate(152.279)">
              <path id="Pfad_132" data-name="Pfad 132" d="M318.472,378.16V357h5.03v-2.516h-5.03v-7.218h-2.737v7.218h-3.28V357h3.28V378.16c0,3.72,1.97,5.851,5.415,5.851a9.25,9.25,0,0,0,2.461-.383v-2.4a14.234,14.234,0,0,1-2.461.273C319.346,381.5,318.472,380.293,318.472,378.16Z" transform="translate(-312.456 -347.263)" fill="#484848"/>
            </g>
            <g id="Gruppe_204" data-name="Gruppe 204" transform="translate(175.032 6.672)">
              <path id="Pfad_133" data-name="Pfad 133" d="M326.761,349.806c-3.28,0-5.633,2.241-5.633,5.961v23.569h2.734V355.767c0-2.3,1.477-3.448,2.9-3.448,1.532,0,2.9,1.149,2.9,3.448v2.624h2.737v-2.624C332.394,352.157,330.1,349.806,326.761,349.806Z" transform="translate(-321.128 -349.806)" fill="#484848"/>
            </g>
            <g id="Gruppe_205" data-name="Gruppe 205" transform="translate(199.1 7.218)">
              <rect id="Rechteck_15" data-name="Rechteck 15" width="2.734" height="28.984" fill="#484848"/>
            </g>
            <g id="Gruppe_206" data-name="Gruppe 206" transform="translate(216.166 6.672)">
              <path id="Pfad_134" data-name="Pfad 134" d="M342.93,349.806a5.782,5.782,0,0,0-6.124,5.961v18.156a6.127,6.127,0,0,0,12.25,0V355.767A5.783,5.783,0,0,0,342.93,349.806Zm3.393,24.117a3.392,3.392,0,1,1-6.782,0V355.767a3.392,3.392,0,1,1,6.782,0Z" transform="translate(-336.806 -349.806)" fill="#484848"/>
            </g>
          </g>
        </g>
        <path id="Pfad_135" data-name="Pfad 135" d="M350.521,374.328a2.367,2.367,0,0,0-.6.079l-6.449-14.824a2.38,2.38,0,1,0-3.781-1.923,2.333,2.333,0,0,0,.047.472l-17.3,7.995a2.373,2.373,0,0,0-2.613-.774l-9.755-15.643a2.375,2.375,0,0,0-.063-3.424l9.839-17.025a2.379,2.379,0,0,0,2.558-.79l17.319,8.3a2.378,2.378,0,1,0,3.723-1.349l6.473-14.884a2.379,2.379,0,1,0-1.409-3.576l-23.031-9.033a2.159,2.159,0,0,0,.029-.346,2.38,2.38,0,1,0-4.76,0c0,.058,0,.118.008.176l-22.811,7.011a2.379,2.379,0,1,0-3.427,3.127L283.5,345.443a2.46,2.46,0,0,0-.373-.031,2.38,2.38,0,1,0,0,4.759c.06,0,.115-.005.173-.008l11.29,26.8a2.378,2.378,0,1,0,3.542,3.135l22.488,7.1v.008a2.38,2.38,0,0,0,4.76,0c0-.05-.005-.1-.008-.147l23.147-9.075a2.379,2.379,0,1,0,2-3.658Zm-10.348-15.239a2.383,2.383,0,0,0,2.335.91l6.478,14.892a2.385,2.385,0,0,0-.554.677l-25.479-7.8c.005-.052.008-.1.008-.16a2.4,2.4,0,0,0-.06-.535ZM318.932,365.9a2.371,2.371,0,0,0-.729,1.711,2.318,2.318,0,0,0,.047.47l-20.169,9.18a2.353,2.353,0,0,0-.711-.617l10.647-26.269a2.516,2.516,0,0,0,.375.032,2.378,2.378,0,0,0,.79-.136Zm-9.826-20.142a2.372,2.372,0,0,0-.714-.11,2.418,2.418,0,0,0-.367.031L297.231,317.9a2.351,2.351,0,0,0,.585-.577l20.4,9.22a2.46,2.46,0,0,0-.042.443,2.375,2.375,0,0,0,.771,1.75ZM342.488,335a2.537,2.537,0,0,0-.451-.042,2.377,2.377,0,0,0-1.842.871l-17.327-8.3a2.247,2.247,0,0,0,.063-.535c0-.039,0-.079-.005-.115l25.5-7.514a2.381,2.381,0,0,0,.564.7Zm5.672-17.044a2.488,2.488,0,0,0-.018.283c0,.037.005.074.005.108l-25.5,7.514a2.383,2.383,0,0,0-1.278-1.1l1.976-14.8a2.379,2.379,0,0,0,1.761-1.039Zm-27.093-9.191a2.385,2.385,0,0,0,1.236,1.047l-1.976,14.808a2.357,2.357,0,0,0-1.692.963l-20.413-9.228a2.368,2.368,0,0,0,.039-.412c0-.055-.005-.11-.01-.165ZM295.5,318.288a2.673,2.673,0,0,0,.386.034,2.218,2.218,0,0,0,.373-.034l10.791,27.775a2.393,2.393,0,0,0-.986,1.477l-20.565.026a2.382,2.382,0,0,0-1.021-1.737Zm-11.185,31.566a2.383,2.383,0,0,0,1.044-1.236l20.725-.026a2.384,2.384,0,0,0,.96,1.393L296.357,376.34c-.052,0-.1-.008-.158-.008a2.419,2.419,0,0,0-.693.1ZM298.54,379.13a2.189,2.189,0,0,0,.039-.417,2.276,2.276,0,0,0-.055-.5l20.158-9.173a2.362,2.362,0,0,0,1.574.926l2.018,14.979a2.382,2.382,0,0,0-1.417,1.233Zm26.534,6.916a2.376,2.376,0,0,0-1.75-1.191l-2.018-14.979a2.394,2.394,0,0,0,1.349-1.1l25.495,7.8c0,.045-.008.087-.008.129a2.621,2.621,0,0,0,.018.289Z" transform="translate(-211.666 -305.198)" fill="#484848"/>
      </g>
    </g>
  </g>
</svg>
